PathFileType	4	(X/Y/Z)	G:\Shared drives\HPL_Drive\Nord Sprinting Study\Kristen_Nord_test\Trimmed_Nord000004.trc
DataRate	CameraRate	NumFrames	NumMarkers	Units	OrigDataRate	OrigDataStartFrame	OrigNumFrames
200.00	200.00	      6	52	mm	200.00	1	      1002
Frame#	Time	C7			R_Shoulder			L_Shoulder			Sternum			R_humerus			R_elbow_med			R_elbow_lat			R_forearm			R_wrist_radius			R_wrist_ulna			L_humerus			L_elbow_med			L_elbow_lat			L_forearm			L_wrist_radius			L_wrist_ulna			r.ASIS			r.PSIS			r_IC			L.ASIS			L.PSIS			l_IC			r_thigh1			r_thigh2			r_thigh3			r_thigh4			r_thigh5			r_knee			r_mknee			r_shank_antsup			r_sh2			r_sh3			r_sh4			r_ankle			r_mankle			r_calc			r_5meta			r_toe			L_thigh1			L_thigh2			L_thigh3			L_thigh4			L_knee			L_mknee			L_shank_antsup			L_sh2			L_sh3			L_ankle			L_mankle			L_calc			L_5meta			L_toe			
		X1	Y1	Z1	X2	Y2	Z2	X3	Y3	Z3	X4	Y4	Z4	X5	Y5	Z5	X6	Y6	Z6	X7	Y7	Z7	X8	Y8	Z8	X9	Y9	Z9	X10	Y10	Z10	X11	Y11	Z11	X12	Y12	Z12	X13	Y13	Z13	X14	Y14	Z14	X15	Y15	Z15	X16	Y16	Z16	X17	Y17	Z17	X18	Y18	Z18	X19	Y19	Z19	X20	Y20	Z20	X21	Y21	Z21	X22	Y22	Z22	X23	Y23	Z23	X24	Y24	Z24	X25	Y25	Z25	X26	Y26	Z26	X27	Y27	Z27	X28	Y28	Z28	X29	Y29	Z29	X30	Y30	Z30	X31	Y31	Z31	X32	Y32	Z32	X33	Y33	Z33	X34	Y34	Z34	X35	Y35	Z35	X36	Y36	Z36	X37	Y37	Z37	X38	Y38	Z38	X39	Y39	Z39	X40	Y40	Z40	X41	Y41	Z41	X42	Y42	Z42	X43	Y43	Z43	X44	Y44	Z44	X45	Y45	Z45	X46	Y46	Z46	X47	Y47	Z47	X48	Y48	Z48	X49	Y49	Z49	X50	Y50	Z50	X51	Y51	Z51	X52	Y52	Z52	

1	0.000	1232.66736	244.10625	1278.32935	1347.85327	297.55890	1288.61145	1093.19250	274.58331	1299.01819	1215.16956	378.10959	1255.98218	1524.01062	287.30695	1269.17419	1657.60803	344.45447	1207.32385	1656.85669	271.17361	1236.23901	1638.51892	304.19461	1360.81787	1591.29126	364.62823	1455.57227	1636.57849	348.71774	1465.34961	896.08917	226.38219	1262.29626	777.94720	270.81421	1193.22876	782.05804	197.93521	1217.34888	810.72101	241.45172	1357.02747	849.85327	291.15530	1435.16687	793.99786	285.91351	1442.51587	1334.01501	422.17133	788.95782	1296.00879	239.37358	849.80035	1375.02612	349.16504	871.48969	1095.61816	402.31888	787.47968	1179.94751	233.45424	844.44086	1073.44995	335.17444	861.26111	1389.25989	391.53448	525.46521	1383.39124	388.95895	410.49905	1394.71899	341.63916	381.79193	1402.31616	284.40863	529.48175	1383.43286	280.22595	412.04443	1377.46204	344.66525	304.63568	1248.81274	328.78488	312.96558	1402.73193	216.65686	290.41611	1387.00159	97.26009	284.43036	1393.18506	212.01607	365.48431	1381.26379	96.58289	366.79965	1372.80725	-71.89104	324.65475	1296.54553	-56.61373	284.21121	1314.62708	-96.73646	374.17136	1394.79663	-147.29997	223.16766	1360.78992	-123.73031	169.70639	1038.41846	381.98019	530.49323	1040.30713	382.78668	389.84875	1037.17029	264.25925	534.74536	1048.41309	267.27734	396.72076	1030.87305	310.40656	329.82617	1158.73035	320.77496	303.60590	1018.07672	203.54453	309.03653	1049.56140	203.46480	391.43692	1065.46985	84.59267	376.20612	1064.51965	-86.38068	331.96518	1130.14417	-59.72604	273.72745	1127.78455	-94.64229	366.08353	1039.33923	-166.73167	221.17871	1066.20483	-137.45418	160.38739	
2	0.005	1232.66785	244.11369	1278.38452	1347.84802	297.53424	1288.61584	1093.18848	274.53366	1299.01343	1215.10059	378.06815	1256.01086	1524.02429	287.28946	1269.16956	1657.61450	344.43719	1207.32727	1656.84973	271.13428	1236.20508	1638.51917	304.18784	1360.82092	1591.28723	364.61682	1455.55981	1636.37109	348.86862	1465.34790	896.08789	226.31306	1262.31494	777.95697	270.77036	1193.22998	782.05164	197.90379	1217.38208	810.74640	241.40175	1357.02612	849.86145	291.09943	1435.16602	794.02887	285.85797	1442.53381	1333.99280	422.15280	788.95990	1295.99878	239.37312	849.79370	1374.99902	349.14496	871.50037	1095.80811	402.20496	787.24951	1179.94580	233.42065	844.47766	1073.41235	335.14810	861.24463	1389.20215	391.55286	525.47906	1383.38098	388.95074	410.50943	1394.69482	341.63635	381.79196	1402.29199	284.39706	529.46552	1383.41028	280.19788	412.07050	1377.48291	344.70160	304.65778	1248.79968	328.77701	312.96048	1403.08875	216.83928	290.58969	1386.99695	97.26366	284.45453	1393.17212	212.03459	365.50406	1381.24146	96.60206	366.82968	1372.76794	-71.91177	324.69711	1296.56714	-56.57375	284.18365	1314.63733	-96.72557	374.13181	1394.80627	-147.30894	223.13921	1360.82190	-123.72586	169.70451	1038.41833	381.96265	530.49249	1040.35608	382.79987	389.83878	1037.15369	264.22589	534.73480	1048.41675	267.27573	396.69162	1030.88135	310.41260	329.80795	1158.71143	320.77664	303.58585	1018.57312	203.57910	308.96155	1049.55713	203.45250	391.41977	1065.49744	84.58789	376.23172	1064.56470	-86.38680	332.01343	1130.15845	-59.72763	273.75681	1127.77576	-94.63550	366.07462	1039.33936	-166.75499	221.22734	1066.22852	-137.47447	160.32605	
3	0.010	1232.65161	244.05539	1278.34851	1347.86047	297.52023	1288.62720	1093.19678	274.50620	1299.01794	1215.12842	378.04288	1256.01587	1523.99963	287.27829	1269.16809	1657.61475	344.41052	1207.28833	1656.84778	271.14737	1236.20227	1638.50488	304.18436	1360.81042	1591.30066	364.59338	1455.55103	1636.36182	348.84915	1465.33276	896.11243	226.28421	1262.30347	777.95734	270.75577	1193.24475	782.07306	197.83853	1217.38013	810.75995	241.34726	1357.00244	849.87427	291.04977	1435.18201	793.99872	285.82047	1442.55518	1334.00696	422.13773	789.00043	1296.00073	239.36353	849.78442	1374.98486	349.13434	871.50073	1095.76892	402.14902	787.25525	1179.92908	233.42131	844.45068	1073.41174	335.13300	861.25659	1389.20813	391.55963	525.47357	1383.38745	388.95862	410.50336	1394.71582	341.64035	381.81509	1402.27747	284.38263	529.45966	1383.43506	280.22269	412.03329	1377.46741	344.69812	304.66000	1248.79700	328.77240	312.96021	1402.71448	216.69267	290.45242	1386.99036	97.26785	284.44568	1393.20178	212.04485	365.49832	1381.25232	96.59566	366.83820	1372.78711	-71.90884	324.72357	1296.58813	-56.61166	284.13394	1314.61707	-96.71421	374.13379	1394.76990	-147.31306	223.12434	1360.82446	-123.74297	169.71916	1038.40930	381.97928	530.50262	1040.33728	382.77762	389.84680	1037.13806	264.25629	534.72595	1048.42480	267.27914	396.70789	1030.86658	310.41083	329.81256	1158.68799	320.79642	303.58188	1018.10443	203.57291	309.01712	1049.55542	203.54674	391.44791	1065.49878	84.57973	376.25842	1064.55676	-86.37966	332.00467	1130.12476	-59.71828	273.75195	1127.80591	-94.64471	366.10349	1039.34668	-166.74313	221.22664	1066.23376	-137.48056	160.34508	
4	0.015	1232.64575	244.07742	1278.40527	1347.92334	297.45163	1288.55835	1093.10583	274.62851	1299.08582	1215.01050	377.99954	1255.89453	1524.00842	287.26871	1269.17029	1657.60461	344.40259	1207.28223	1656.87476	271.15173	1236.18738	1638.50171	304.16852	1360.79114	1591.29919	364.56122	1455.55225	1636.32849	348.76291	1465.21350	896.09497	226.21497	1262.33936	777.93811	270.70764	1193.25671	782.09747	197.81711	1217.38074	810.73016	241.28439	1357.04102	849.88385	291.00925	1435.18848	794.01489	285.77579	1442.57703	1334.01526	422.15579	789.00494	1295.97302	239.31973	849.76996	1374.97839	349.12393	871.49634	1095.55469	402.21942	787.52405	1179.91797	233.39050	844.42749	1073.41028	335.11227	861.26526	1389.24170	391.55008	525.48407	1383.39148	388.96573	410.50854	1394.70923	341.62625	381.86032	1402.26086	284.36877	529.50366	1383.43713	280.20874	412.05728	1377.46655	344.68854	304.63327	1248.81714	328.76834	312.95483	1402.70947	216.69153	290.45499	1387.00342	97.24883	284.46786	1393.18750	212.04060	365.53641	1381.25085	96.59963	366.82590	1372.78833	-71.91839	324.71240	1296.53564	-56.56572	284.24857	1314.65649	-96.71529	374.15552	1394.79126	-147.32074	223.15694	1360.82751	-123.73827	169.70178	1038.42114	381.97717	530.50555	1040.31091	382.73834	389.84048	1037.18787	264.25992	534.74042	1048.40527	267.26727	396.69012	1030.86816	310.43652	329.78183	1158.72131	320.81601	303.58011	1018.08588	203.58284	309.00055	1049.57373	203.53873	391.45810	1065.47290	84.57545	376.26892	1064.53625	-86.38126	331.98615	1130.16040	-59.71994	273.76773	1127.79004	-94.63352	366.09030	1039.35022	-166.74969	221.21294	1066.25659	-137.47758	160.43674	
5	0.020	1232.66785	243.99974	1278.35278	1347.85596	297.46442	1288.60608	1093.09717	274.60138	1299.08386	1215.05615	377.95190	1255.88098	1524.00964	287.23480	1269.14624	1657.62817	344.39816	1207.25000	1656.84021	271.12012	1236.18250	1638.52319	304.14426	1360.74255	1591.31519	364.53815	1455.54248	1636.32727	348.75040	1465.18896	896.15070	226.19012	1262.26563	777.94562	270.64331	1193.29492	782.09827	197.75401	1217.39087	810.79510	241.27550	1357.00452	849.89484	290.97116	1435.17163	794.04315	285.72516	1442.57825	1333.99597	422.14246	789.00629	1295.96155	239.29506	849.79956	1374.99622	349.10989	871.48328	1095.60547	402.30048	787.49420	1179.94714	233.36772	844.40289	1073.39331	335.07458	861.24811	1389.24292	391.52243	525.46161	1383.35901	388.94443	410.51706	1394.71130	341.61035	381.84430	1402.25171	284.36267	529.48584	1383.41626	280.21118	412.04355	1377.47253	344.70782	304.66281	1248.79260	328.78680	312.96414	1402.71765	216.69983	290.44205	1387.02429	97.23232	284.46542	1393.16357	212.02960	365.51648	1381.22119	96.60237	366.81519	1372.78015	-71.90196	324.67102	1296.55286	-56.60882	284.23050	1314.65833	-96.70844	374.14426	1394.80090	-147.32274	223.12489	1360.81506	-123.71978	169.74036	1038.43738	381.97705	530.49121	1040.32727	382.75763	389.86133	1037.17651	264.18817	534.71661	1048.39929	267.24600	396.68716	1030.85388	310.42044	329.81885	1158.71655	320.77887	303.58737	1018.56348	203.59154	308.94427	1049.57568	203.50624	391.43311	1065.48804	84.57523	376.25632	1064.55566	-86.38862	332.03720	1130.13513	-59.71888	273.75034	1127.79309	-94.64138	366.08069	1039.36719	-166.76996	221.22794	1066.23547	-137.47464	160.42673	
6	0.025	1232.63464	243.96594	1278.36108	1347.85693	297.45255	1288.57666	1093.20178	274.42615	1299.03613	1215.09143	377.94055	1256.00818	1524.01074	287.21490	1269.12866	1657.61377	344.39078	1207.25146	1656.83533	271.11731	1236.16614	1638.50269	304.11911	1360.75171	1591.30701	364.53564	1455.53601	1636.34351	348.74707	1465.18518	896.09357	226.15486	1262.34363	777.95331	270.61084	1193.28479	782.09692	197.72314	1217.43665	810.77325	241.21840	1357.05750	849.88708	290.90585	1435.22656	794.03986	285.66272	1442.61169	1333.97192	422.09900	789.01605	1295.98694	239.30518	849.74982	1374.96558	349.08630	871.50958	1095.79150	402.14325	787.27924	1179.91003	233.33861	844.41339	1073.38391	335.07257	861.23535	1389.17688	391.50443	525.50250	1383.37378	388.94849	410.50565	1394.72424	341.62540	381.85550	1402.23877	284.35626	529.50549	1383.40686	280.21246	412.05966	1377.48376	344.69458	304.66641	1248.79907	328.78888	312.97009	1402.74023	216.68494	290.44769	1386.99500	97.26898	284.48157	1393.19006	212.03096	365.51559	1381.24866	96.57343	366.81436	1372.82007	-71.90318	324.69397	1296.56189	-56.60732	284.17709	1314.71228	-96.69852	374.12946	1394.80811	-147.30934	223.11833	1360.84375	-123.73071	169.67708	1038.39819	381.94266	530.48114	1040.29785	382.79095	389.84970	1037.17786	264.23004	534.72266	1048.41089	267.23206	396.69748	1030.86328	310.41495	329.81085	1158.73242	320.79745	303.58463	1018.07489	203.56924	309.03500	1049.57458	203.45801	391.38351	1065.46484	84.58759	376.26022	1064.56128	-86.37043	332.03067	1130.15393	-59.72224	273.75461	1127.81287	-94.64326	366.08755	1039.36072	-166.75961	221.24709	1066.24365	-137.47502	160.37622	
